<svg width="430" height="493" viewBox="0 0 430 493" fill="none" xmlns="http://www.w3.org/2000/svg">
<path fill-rule="evenodd" clip-rule="evenodd" d="M18.0839 18.1046L0 14.1046V65V65.1046V391V493L14.0653 483C14.5166 482.671 14.9796 482.332 15.454 481.986C30.8209 470.755 58.1382 450.79 86.4009 444C109.781 439.013 133.856 443.697 157.471 448.292L157.471 448.292C162.269 449.226 167.047 450.156 171.797 451C200.932 455 229.063 455 258.198 449C271.121 445.784 284.256 441.302 297.408 436.814L297.409 436.814C312.886 431.533 328.387 426.244 343.594 423C372.73 417 400.86 417 415.93 417H429.995V391V65.1046V65V1.10457L411.911 3.10457C409.917 3.32516 407.715 3.58225 405.326 3.86107C386.059 6.11021 354.675 9.77368 322.497 7.10457C310.366 6.43379 298.349 5.08808 286.369 3.74654C262.629 1.08816 239.035 -1.55387 214.998 1.10457C196.208 3.18268 177.689 8.76958 159.159 14.3597C142.022 19.5296 124.877 24.7022 107.499 27.1046C74.1943 30.7879 41.7417 23.4481 22.692 19.1397C21.0543 18.7692 19.5156 18.4212 18.0839 18.1046Z" fill="#301466"/>
</svg>
