<svg width="1639" height="617" viewBox="0 0 1639 617" fill="none" xmlns="http://www.w3.org/2000/svg">
<path fill-rule="evenodd" clip-rule="evenodd" d="M72 48.6166L0 54.629V208V235V293V379V581L72 557C144 533 288 485 432 491C490.909 493.455 549.818 504.946 608.727 516.438L608.727 516.438C693.818 533.037 778.909 549.636 864 539C928.552 530.931 993.104 507.188 1057.66 483.445C1137.1 454.222 1216.55 425 1296 425C1440 425 1584 521 1656 569L1728 617L1728 379L1728 293L1728 235V208V126.777L1656 96.7156C1584 66.6537 1440 6.53005 1296 0.51768C1209.6 -3.08974 1123.2 12.7829 1036.8 28.6556C979.2 39.2373 921.6 49.8191 864 54.629C768 62.6455 672 54.629 576 46.6125C528 42.6043 480 38.596 432 36.5919C288 30.5795 144 42.6043 72 48.6166Z" fill="#301466"/>
</svg>
