<svg width="12" height="24" viewBox="0 0 12 24" fill="none" xmlns="http://www.w3.org/2000/svg">
<path d="M1.95001 0.333343C2.199 0.332496 2.44502 0.387449 2.66998 0.494163C2.89495 0.600877 3.09314 0.756643 3.25001 0.95001L11.3 10.95C11.5451 11.2482 11.6792 11.6223 11.6792 12.0083C11.6792 12.3944 11.5451 12.7685 11.3 13.0667L2.96667 23.0667C2.68378 23.407 2.27726 23.6211 1.83655 23.6617C1.39584 23.7023 0.957036 23.5662 0.616674 23.2833C0.276314 23.0004 0.0622737 22.5939 0.0216405 22.1532C-0.0189927 21.7125 0.11711 21.2737 0.400008 20.9333L7.85001 12L0.650009 3.06667C0.446204 2.82203 0.316742 2.52413 0.276942 2.20822C0.237143 1.8923 0.288671 1.5716 0.425431 1.28405C0.562191 0.996505 0.778457 0.754152 1.04864 0.585668C1.31883 0.417184 1.63162 0.329622 1.95001 0.333343Z" fill="#999494"/>
</svg>
