<svg width="34" height="34" viewBox="0 0 34 34" fill="none" xmlns="http://www.w3.org/2000/svg">
<path d="M17 0C7.582 0 0 7.582 0 17C0 26.418 7.582 34 17 34C26.418 34 34 26.418 34 17C34 7.582 26.418 0 17 0ZM20.9667 6.13842C21.1508 6.13275 21.318 6.33108 21.2089 6.53225L16.8966 14.4372C16.8748 14.4776 16.8638 14.5228 16.8647 14.5686C16.8656 14.6145 16.8784 14.6593 16.9018 14.6987C16.9252 14.7381 16.9585 14.7707 16.9983 14.7934C17.0381 14.8161 17.0831 14.8281 17.1289 14.8282H24.5806C24.8214 14.8282 24.9376 15.1215 24.7619 15.2858L11.7002 27.4762C11.4665 27.6944 11.1194 27.387 11.3064 27.1278L17.4888 18.598C17.5171 18.5585 17.534 18.512 17.5377 18.4635C17.5413 18.415 17.5316 18.3665 17.5095 18.3232C17.4874 18.2799 17.4538 18.2435 17.4124 18.218C17.371 18.1925 17.3234 18.1789 17.2748 18.1787H9.38825C9.33578 18.1785 9.28452 18.1628 9.24099 18.1335C9.19746 18.1042 9.1636 18.0627 9.14372 18.0141C9.12384 17.9656 9.11883 17.9122 9.12933 17.8608C9.13982 17.8094 9.16535 17.7622 9.20267 17.7253L20.791 6.21775C20.8374 6.16925 20.901 6.14079 20.9681 6.13842H20.9667Z" fill="black"/>
</svg>
