<svg width="33" height="42" viewBox="0 0 33 42" fill="none" xmlns="http://www.w3.org/2000/svg">
<g clip-path="url(#clip0_256_34)">
<path d="M32.9426 8.23315L29.9467 38.5243L16.4799 41.8939L3.05019 38.529L0.057373 8.23315H32.9426Z" fill="#E44D26"/>
<path d="M16.5 39.3183L27.3819 36.5955L29.942 10.7102H16.5V39.3183Z" fill="#F16529"/>
<path d="M10.676 18.1417H16.5V14.426H6.17682L6.2753 15.4229L7.28722 25.6622H16.5V21.9466H11.0523L10.676 18.1417V18.1417ZM11.6039 27.5201H7.47117L8.04789 33.3543L16.4811 35.4671L16.5 35.4624V31.5966L16.482 31.6009L11.897 30.4835L11.6039 27.5201Z" fill="#EBEBEB"/>
<path d="M3.11694 0H5.20909V1.86557H7.12296V0H9.21524V5.64941H7.12309V3.75766H5.20922V5.64941H3.11707V0H3.11694ZM11.9664 1.87348H10.1248V0H15.9016V1.87348H14.0589V5.64941H11.9667V1.87348H11.9666H11.9664ZM16.8184 0H18.9999L20.3418 1.98505L21.6824 0H23.8648V5.64941H21.7812V2.84925L20.3418 4.85792H20.3057L18.8654 2.84925V5.64941H16.8184V0ZM24.906 0H26.9988V3.78209H29.9409V5.64941H24.9058V0H24.906Z" fill="black"/>
<path d="M16.4858 25.6622H21.5553L21.0774 30.4812L16.4857 31.5997V35.4654L24.9256 33.3543L24.9875 32.7265L25.955 22.9443L26.0555 21.9466H16.4858V25.6622ZM16.4858 18.1326V18.1417H26.4301L26.5126 17.3066L26.7002 15.4229L26.7986 14.426H16.4858V18.1327V18.1326Z" fill="white"/>
</g>
<defs>
<clipPath id="clip0_256_34">
<rect width="33" height="42" fill="white"/>
</clipPath>
</defs>
</svg>
