<svg width="32" height="33" viewBox="0 0 32 33" fill="none" xmlns="http://www.w3.org/2000/svg">
<g clip-path="url(#clip0_62_216)">
<path d="M16 0.660034C7.5168 0.660034 0.639999 7.75173 0.639999 16.5C0.639999 25.2483 7.5168 32.34 16 32.34C24.4832 32.34 31.36 25.2483 31.36 16.5C31.36 7.75173 24.4832 0.660034 16 0.660034ZM12.24 23.0654H9.1296V12.743H12.24V23.0654ZM10.6656 11.4758C9.6832 11.4758 9.048 10.758 9.048 9.87033C9.048 8.96448 9.7024 8.26818 10.7056 8.26818C11.7088 8.26818 12.3232 8.96448 12.3424 9.87033C12.3424 10.758 11.7088 11.4758 10.6656 11.4758ZM23.6 23.0654H20.4896V17.3448C20.4896 16.0133 20.0384 15.1091 18.9136 15.1091C18.0544 15.1091 17.544 15.7212 17.3184 16.3103C17.2352 16.5198 17.2144 16.8168 17.2144 17.1122V23.0637H14.1024V16.0347C14.1024 14.7461 14.0624 13.6686 14.0208 12.7413H16.7232L16.8656 14.1752H16.928C17.3376 13.502 18.3408 12.5087 20.0192 12.5087C22.0656 12.5087 23.6 13.9227 23.6 16.962V23.0654V23.0654Z" fill="white"/>
</g>
<defs>
<clipPath id="clip0_62_216">
<rect width="32" height="33" fill="white"/>
</clipPath>
</defs>
</svg>
