<svg width="33" height="33" viewBox="0 0 33 33" fill="none" xmlns="http://www.w3.org/2000/svg">
<path d="M11.8968 28.468C10.0761 28.7149 8.81946 28.471 7.9489 27.99C6.98586 27.4579 6.57203 26.6781 6.38018 26.1502C6.30115 25.9541 6.07419 25.5129 5.77935 25.0711C5.63205 24.8504 5.47454 24.6398 5.31835 24.466C5.15933 24.289 5.02242 24.1737 4.91821 24.1155C4.74701 24.0248 4.55987 23.9027 4.39573 23.7665C4.2417 23.6387 4.05773 23.4576 3.95733 23.2404C3.9045 23.1261 3.85756 22.9644 3.89037 22.7803C3.92559 22.5827 4.03993 22.4301 4.18156 22.3276C4.42441 22.1519 4.77101 22.104 5.12827 22.0988M11.8968 28.468L32.5 16.2581C32.499 19.5581 31.4479 22.7755 29.4935 25.4574C27.5455 28.1305 24.7977 30.1378 21.6336 31.1977C21.3561 31.2464 21.2496 31.1748 21.2146 31.1437C21.1637 31.0986 21.125 31.0142 21.125 30.9106C21.125 30.729 21.1273 30.4147 21.1303 29.9938C21.1319 29.7839 21.1336 29.5477 21.1353 29.2882C21.1405 28.5102 21.1456 27.5285 21.1456 26.4397C21.1456 25.3285 20.8891 24.4511 20.4947 23.8073C22.0827 23.5534 23.7005 23.0575 24.9912 21.9909C26.5551 20.6983 27.56 18.636 27.56 15.4045C27.56 13.6023 26.9513 12.1149 25.9395 10.9253C26.1732 10.1962 26.4961 8.58103 25.667 6.5387L25.5794 6.32279L25.3577 6.25105L25.2038 6.72677C25.3577 6.25105 25.3572 6.2509 25.3567 6.25074L25.3557 6.25042L25.3536 6.24975L25.349 6.24832L25.3382 6.24512C25.3303 6.24284 25.321 6.24029 25.3102 6.23757C25.2888 6.23214 25.2616 6.22602 25.2288 6.21997C25.1631 6.20786 25.0748 6.1961 24.9634 6.19056C24.7401 6.17946 24.4265 6.19344 24.0175 6.2777C23.2326 6.43938 22.1003 6.85886 20.5784 7.85189C19.2781 7.51315 17.9086 7.34452 16.5413 7.34452C15.1734 7.34452 13.8035 7.51326 12.5028 7.85223C10.9811 6.86852 9.84985 6.44969 9.06663 6.28566C8.65853 6.20019 8.34589 6.18414 8.12357 6.19321C8.01256 6.19775 7.92468 6.20852 7.8593 6.2198C7.82663 6.22544 7.79966 6.23118 7.77832 6.23631C7.76765 6.23887 7.7584 6.24127 7.75055 6.24342L7.73982 6.24646L7.73525 6.24781L7.73316 6.24844L7.73217 6.24874C7.73169 6.24889 7.73121 6.24904 7.87875 6.72677L7.73121 6.24904L7.50466 6.31901L7.41547 6.5387C6.58632 8.58118 6.90932 10.1965 7.14305 10.9255C6.13073 12.1178 5.5225 13.622 5.5225 15.4045C5.5225 18.6254 6.52194 20.6872 8.07991 21.9823C9.36691 23.0522 10.9816 23.5522 12.5701 23.8073C12.3296 24.2004 12.1391 24.6817 12.0298 25.2513C11.5884 25.4195 10.9679 25.5786 10.3215 25.52C9.5772 25.4526 8.75789 25.0953 8.10051 24.0067L8.10061 24.0066L8.09472 23.9973C7.92248 23.7258 7.5804 23.2584 7.09396 22.8561C6.60835 22.4545 5.93922 22.0862 5.12827 22.0988M11.8968 28.468C11.8986 28.9388 11.9023 29.3841 11.906 29.7672C11.9076 29.9339 11.9091 30.0883 11.9106 30.2276C11.9138 30.5414 11.9162 30.7792 11.9162 30.9106C11.9162 31.0118 11.8792 31.0902 11.8297 31.1334C11.7922 31.1661 11.6811 31.2372 11.4007 31.1956C5.0562 29.0947 0.5 23.2119 0.5 16.2581C0.5 7.55856 7.6529 0.5 16.5 0.5C25.347 0.5 32.4999 7.55848 32.5 16.2579L11.8968 28.468ZM5.12827 22.0988L5.13562 22.5987M5.12827 22.0988C5.12812 22.0988 5.12796 22.0988 5.12781 22.0988L5.13562 22.5987M5.13562 22.5987C3.75375 22.619 4.57875 23.371 5.15625 23.6758M5.13562 22.5987L5.15625 23.6758M5.15625 23.6758C5.8575 24.0619 6.66188 25.5048 6.8475 25.9723L5.15625 23.6758Z" fill="white" stroke="white"/>
</svg>
