<svg width="33" height="33" viewBox="0 0 33 33" fill="none" xmlns="http://www.w3.org/2000/svg">
<path fill-rule="evenodd" clip-rule="evenodd" d="M16.5 33C25.6127 33 33 25.6127 33 16.5C33 7.3873 25.6127 0 16.5 0C7.3873 0 0 7.3873 0 16.5C0 25.6127 7.3873 33 16.5 33ZM28 23.1252V9.37517C28 8.98467 27.8529 8.64092 27.6061 8.39755C27.3592 8.1473 27.0155 8.00017 26.625 8.00017H26.1664L17 14.6462L7.83356 8.00017H7.375C7.19319 7.99727 7.01264 8.03095 6.84411 8.09922C6.67557 8.16748 6.52248 8.26894 6.39394 8.39755C6.14713 8.64092 6 8.98467 6 9.37517V23.1252C6 23.9055 6.59469 24.5002 7.375 24.5002H8.75V12.0214L17 17.9476L25.25 12.0214V24.5002H26.625C27.4053 24.5002 28 23.9055 28 23.1252Z" fill="white"/>
</svg>
