<svg width="33" height="33" viewBox="0 0 33 33" fill="none" xmlns="http://www.w3.org/2000/svg">
<path fill-rule="evenodd" clip-rule="evenodd" d="M16.5 33C25.6127 33 33 25.6127 33 16.5C33 7.3873 25.6127 0 16.5 0C7.3873 0 0 7.3873 0 16.5C0 25.6127 7.3873 33 16.5 33ZM7.08 15.9101C7.08 10.4501 11.53 6.00006 16.99 6.00006C18.2931 5.99552 19.5841 6.25049 20.7876 6.75011C21.9912 7.24973 23.0832 7.98398 24 8.91006C25.87 10.7801 26.9 13.2701 26.9 15.9201C26.9 21.3801 22.45 25.8301 16.99 25.8301C15.33 25.8301 13.7 25.4101 12.25 24.6201L7 26.0001L8.4 20.8601C7.54 19.3601 7.08 17.6601 7.08 15.9101ZM22.82 10.0901C21.26 8.53006 19.2 7.67006 17 7.67006C12.45 7.67006 8.76 11.3701 8.75 15.9101C8.74701 17.4599 9.18394 18.9787 10.01 20.2901L10.21 20.6101L9.38 23.6501L12.5 22.8301L12.8 23.0001C14.06 23.7601 15.51 24.1501 16.99 24.1501C21.53 24.1501 25.23 20.4601 25.23 15.9201C25.2317 14.8375 25.0197 13.7653 24.6062 12.7648C24.1926 11.7644 23.5856 10.8554 22.82 10.0901ZM12.82 11.6401C13.05 11.3901 13.32 11.3301 13.48 11.3301C13.5691 11.3301 13.6555 11.3328 13.7377 11.3354C13.8123 11.3378 13.8834 11.3401 13.95 11.3401C13.9685 11.3412 13.9875 11.3414 14.0069 11.3417C14.1562 11.3434 14.3331 11.3455 14.51 11.7701C14.5995 11.979 14.7418 12.3243 14.8802 12.6602C15.0664 13.112 15.2456 13.547 15.28 13.6101C15.34 13.7301 15.38 13.8701 15.3 14.0401C15.2861 14.0678 15.2734 14.0941 15.2613 14.1193C15.2034 14.2392 15.1574 14.3344 15.05 14.4501C14.95 14.6001 14.79 14.7801 14.68 14.8901C14.56 15.0001 14.45 15.1501 14.57 15.3901C14.72 15.6401 15.21 16.4501 15.95 17.1101C16.7332 17.8099 17.4192 18.1072 17.7767 18.2621C17.8482 18.2931 17.9066 18.3184 17.95 18.3401C18.19 18.4601 18.33 18.4401 18.48 18.2701C18.62 18.1101 19.1 17.5501 19.26 17.3001C19.45 17.0601 19.59 17.1001 19.82 17.1801C20.04 17.2601 21.26 17.8601 21.51 18.0001C21.5402 18.0133 21.5691 18.0259 21.5967 18.0379C21.7973 18.1251 21.9285 18.1821 21.99 18.2701C22.05 18.3801 22.05 18.8701 21.84 19.4501C21.63 20.0301 20.65 20.5601 20.17 20.6301C19.74 20.6901 19.2 20.7201 18.61 20.5301C18.25 20.4201 17.79 20.2701 17.2 20.0001C14.9399 19.0379 13.3965 16.8894 13.0261 16.3738C12.9885 16.3213 12.9629 16.2858 12.95 16.2701C12.9404 16.2553 12.925 16.233 12.9048 16.2037C12.6921 15.8964 11.95 14.8241 11.95 13.7101C11.95 12.5948 12.5022 11.9893 12.7609 11.7055C12.7829 11.6814 12.8028 11.6596 12.82 11.6401Z" fill="#121212"/>
</svg>
