<svg width="24" height="24" viewBox="0 0 24 24" fill="none" xmlns="http://www.w3.org/2000/svg">
<g clip-path="url(#clip0_247_39)">
<path d="M14.8107 14.8682L14.3503 15.758C14.2822 15.8896 14.1841 15.999 14.0659 16.0751C13.9477 16.1511 13.8136 16.1911 13.677 16.1911H10.1503C10.0138 16.1911 9.8797 16.1511 9.7615 16.0751C9.64329 15.999 9.54518 15.8896 9.47703 15.758L9.01662 14.8682H14.8106H14.8107ZM16.0994 12.3774L15.2877 13.9462H8.53962L7.72794 12.3774H16.0994V12.3774ZM15.3176 9.94173L16.1007 11.4554H7.72662L8.50981 9.94173H15.3176V9.94173ZM13.6769 7.63919C13.8135 7.63917 13.9476 7.67919 14.0658 7.75523C14.1841 7.83127 14.2822 7.94065 14.3503 8.07234L14.8405 9.01971H8.9869L9.47712 8.07234C9.54527 7.94066 9.64339 7.8313 9.76159 7.75526C9.87979 7.67922 10.0139 7.63918 10.1504 7.63919H13.677H13.6769Z" fill="#00435B"/>
<path d="M5.01772 7.22608C4.62707 5.11762 4.54316 3.50044 4.79572 2.32622C4.94591 1.62782 5.22041 1.05808 5.63797 0.646947C6.07879 0.212964 6.63604 -9.81488e-06 7.26229 -9.81488e-06C8.29522 -9.81488e-06 9.38122 0.524338 10.5417 1.52034C11.0151 1.92667 11.5063 2.41637 12.0165 2.98976C12.0572 2.93164 12.1031 2.87676 12.1543 2.82594C13.5967 1.39533 14.8111 0.506286 15.8499 0.163608C16.4675 -0.0402881 17.0473 -0.0596968 17.5753 0.138147C18.1328 0.346842 18.5769 0.778529 18.8903 1.38302C19.4074 2.38069 19.5437 3.69161 19.351 5.31036C19.2724 5.97015 19.1381 6.68879 18.9482 7.46754C19.0199 7.47714 19.0917 7.49488 19.1627 7.52107C20.9928 8.1962 22.2888 8.92204 23.0734 9.75171C23.5403 10.2453 23.8451 10.7948 23.9553 11.4031C24.0716 12.0452 23.9581 12.6891 23.6452 13.2932C23.129 14.2895 22.1799 15.0751 20.8278 15.6975C20.285 15.9474 19.6707 16.1737 18.9843 16.3773C19.0156 16.456 19.04 16.5395 19.0562 16.6272C19.4469 18.7356 19.5307 20.3528 19.2782 21.5271C19.128 22.2255 18.8534 22.7952 18.4359 23.2063C17.9952 23.6403 17.4378 23.8533 16.8117 23.8533C15.7786 23.8533 14.6927 23.3289 13.5323 22.3329C13.0538 21.9222 12.5571 21.4265 12.041 20.8451C11.9867 20.9396 11.9209 21.0254 11.8456 21.1C10.4032 22.5308 9.18876 23.4196 8.15001 23.7624C7.53238 23.9663 6.95254 23.9857 6.42454 23.7879C5.8671 23.5792 5.42301 23.1475 5.1096 22.543C4.59247 21.5453 4.45616 20.2344 4.64891 18.6156C4.73038 17.9321 4.87166 17.1851 5.07247 16.3737C4.99243 16.3647 4.91352 16.3459 4.83716 16.3177C3.00707 15.6426 1.71107 14.9167 0.926475 14.0871C0.4596 13.5935 0.154818 13.044 0.0445684 12.4356C-0.0716816 11.7936 0.0417559 11.1496 0.354693 10.5455C0.870881 9.54928 1.82001 8.76354 3.17207 8.14131C3.7311 7.88389 4.36588 7.65161 5.07707 7.44333C5.05132 7.3731 5.03146 7.30037 5.01772 7.22608V7.22608Z" fill="#002B3B"/>
<path d="M17.7794 16.8347C17.8667 16.8175 17.9567 16.8384 18.0306 16.8929C18.1045 16.9475 18.1567 17.0317 18.1764 17.128L18.1786 17.1397L18.198 17.2518C18.8271 20.9328 18.3839 22.7734 16.8686 22.7734C15.3861 22.7734 13.4989 21.2029 11.2069 18.0618C11.1661 18.0059 11.1403 17.9385 11.1323 17.8672C11.1243 17.7958 11.1344 17.7234 11.1615 17.6581C11.1886 17.5929 11.2317 17.5374 11.2857 17.498C11.3397 17.4585 11.4026 17.4368 11.4672 17.4352H11.4779L11.5986 17.4361C12.5631 17.4419 13.5007 17.4045 14.4115 17.3238C15.4866 17.2286 16.6092 17.0656 17.7794 16.8347V16.8347ZM7.37305 14.0522L7.37886 14.0632L7.43943 14.1808C7.92477 15.1199 8.43036 16.0112 8.9563 16.8549C9.5758 17.8483 10.2724 18.854 11.046 19.872C11.1034 19.9475 11.1324 20.0448 11.1271 20.1436C11.1217 20.2424 11.0822 20.335 11.017 20.4023L11.0083 20.411L10.9305 20.4856C8.37046 22.927 6.70658 23.4144 5.93886 21.9477C5.18727 20.5122 5.4598 17.9018 6.75627 14.1167C6.77923 14.0496 6.81859 13.9911 6.86991 13.9476C6.92123 13.9042 6.98245 13.8776 7.04664 13.8709C7.11083 13.8642 7.17543 13.8776 7.23312 13.9096C7.2908 13.9417 7.33928 13.9911 7.37305 14.0522V14.0522ZM19.0784 8.62048L19.0889 8.62435L19.1853 8.66129C22.3451 9.88476 23.5456 11.2293 22.7868 12.6949C22.0446 14.1282 19.8871 15.1719 16.3142 15.8257C16.2494 15.8376 16.183 15.8286 16.1226 15.8C16.0622 15.7713 16.0105 15.7241 15.9734 15.6639C15.9362 15.6036 15.9153 15.5329 15.913 15.4599C15.9107 15.3869 15.9272 15.3147 15.9605 15.2517C16.4721 14.2827 16.9331 13.3187 17.3432 12.3595C17.8082 11.2717 18.2446 10.1039 18.6524 8.85652C18.682 8.76585 18.7412 8.6909 18.8182 8.64654C18.8951 8.60217 18.9843 8.59164 19.0679 8.61704L19.0784 8.62048V8.62048ZM7.9168 8.00452C7.95591 8.03008 7.99011 8.06397 8.01745 8.10425C8.04478 8.14453 8.06472 8.19041 8.07613 8.23926C8.08753 8.28812 8.09018 8.339 8.08391 8.389C8.07765 8.43899 8.0626 8.48712 8.03961 8.53064C7.52774 9.49951 7.06686 10.4636 6.6568 11.4229C6.1918 12.5107 5.7554 13.6783 5.34758 14.9258C5.31731 15.0184 5.25621 15.0946 5.17693 15.1385C5.09765 15.1824 5.00624 15.1908 4.92158 15.1618L4.91108 15.158L4.81471 15.1209C1.65486 13.8976 0.454396 12.5529 1.21321 11.0875C1.95533 9.65405 4.1129 8.61047 7.6858 7.95662C7.76549 7.94202 7.84724 7.95892 7.9168 8.00452ZM18.0611 1.97864C18.8127 3.41426 18.5402 6.02462 17.2437 9.80974C17.2208 9.8768 17.1814 9.93537 17.1301 9.97881C17.0788 10.0223 17.0175 10.0488 16.9533 10.0555C16.8892 10.0623 16.8246 10.0488 16.7669 10.0168C16.7092 9.98474 16.6607 9.93535 16.6269 9.87422L16.6211 9.86327L16.5606 9.74567C16.0752 8.80654 15.5696 7.9152 15.0437 7.07155C14.4242 6.07815 13.7276 5.07245 12.954 4.05443C12.8966 3.97888 12.8675 3.8816 12.8729 3.78282C12.8783 3.68404 12.9177 3.59139 12.983 3.52414L12.9917 3.51548L13.0695 3.44087C15.6295 0.999441 17.2934 0.512033 18.0611 1.97864V1.97864ZM7.26093 1.10504C8.74349 1.10504 10.6308 2.67548 12.9227 5.81655C12.9634 5.87238 12.9892 5.9398 12.9972 6.01116C13.0053 6.08251 12.9951 6.15493 12.968 6.2202C12.9409 6.28547 12.8979 6.34096 12.8438 6.38037C12.7898 6.41979 12.7269 6.44154 12.6623 6.44316H12.6516L12.5309 6.44233C11.5665 6.43649 10.6288 6.47395 9.71812 6.55461C8.64299 6.64988 7.52033 6.81287 6.35015 7.04369C6.26281 7.06088 6.17288 7.04003 6.09899 6.98544C6.02509 6.93086 5.97289 6.84672 5.95321 6.75047L5.95096 6.73868L5.93155 6.62661C5.30249 2.94553 5.74555 1.10504 7.26093 1.10504Z" fill="#FF4154"/>
<path d="M10.4339 7.68732H13.3942C13.6069 7.6873 13.8158 7.74977 13.9998 7.86841C14.1839 7.98704 14.3365 8.15764 14.4424 8.36297L15.9288 11.2457C16.0339 11.4495 16.0892 11.6803 16.0892 11.9153C16.0892 12.1502 16.0339 12.3811 15.9288 12.5849L14.4424 15.4676C14.3365 15.6729 14.1839 15.8435 13.9998 15.9621C13.8158 16.0808 13.6069 16.1432 13.3942 16.1432H10.4339C10.001 16.1432 9.60114 15.8855 9.38561 15.4676L7.89939 12.5849C7.79432 12.3811 7.73903 12.1502 7.73903 11.9153C7.73903 11.6803 7.79432 11.4495 7.89939 11.2457L9.3857 8.36297C9.49157 8.15764 9.64425 7.98704 9.82832 7.86841C10.0124 7.74977 10.2213 7.68731 10.434 7.68732H10.4339ZM12.943 8.55737C13.3761 8.55737 13.7762 8.81542 13.9915 9.23365L15.028 11.2463C15.1329 11.4499 15.1881 11.6806 15.1881 11.9153C15.1881 12.15 15.1329 12.3806 15.028 12.5843L13.9915 14.5969C13.8857 14.8024 13.733 14.9731 13.5489 15.0919C13.3648 15.2106 13.1557 15.2731 12.943 15.2731H10.8851C10.452 15.2731 10.0519 15.0151 9.83655 14.5969L8.80005 12.5843C8.69518 12.3806 8.64001 12.15 8.64001 11.9153C8.64001 11.6806 8.69518 11.4499 8.80005 11.2463L9.83655 9.23365C9.94237 9.02819 10.0951 8.85747 10.2792 8.73874C10.4633 8.62001 10.6723 8.55748 10.885 8.55747H12.943V8.55737ZM12.4567 9.50902H11.3714C11.1588 9.50901 10.95 9.57143 10.766 9.68996C10.582 9.8085 10.4293 9.97896 10.3234 10.1842L9.7757 11.2451C9.67042 11.449 9.61502 11.6801 9.61502 11.9153C9.61502 12.1505 9.67042 12.3816 9.7757 12.5855L10.3234 13.6465C10.4293 13.8517 10.582 14.0222 10.766 14.1407C10.95 14.2592 11.1588 14.3217 11.3714 14.3216H12.4567C12.8894 14.3216 13.2892 14.0641 13.5047 13.6465L14.0524 12.5855C14.1577 12.3816 14.2131 12.1505 14.2131 11.9153C14.2131 11.6801 14.1577 11.449 14.0524 11.2451L13.5047 10.184C13.3988 9.97886 13.2461 9.8084 13.0621 9.68986C12.8781 9.57132 12.6693 9.50891 12.4567 9.50892V9.50902ZM11.9885 10.4199C12.4209 10.4199 12.8203 10.677 13.036 11.094L13.1137 11.2442C13.2192 11.4484 13.2748 11.6798 13.2748 11.9153C13.2748 12.1508 13.2192 12.3822 13.1137 12.5863L13.036 12.7366C12.93 12.9415 12.7774 13.1117 12.5935 13.23C12.4096 13.3484 12.2009 13.4107 11.9885 13.4107H11.8396C11.6272 13.4107 11.4185 13.3484 11.2346 13.23C11.0507 13.1117 10.8981 12.9415 10.7921 12.7366L10.7144 12.5863C10.6089 12.3822 10.5533 12.1508 10.5533 11.9153C10.5533 11.6798 10.6089 11.4484 10.7144 11.2442L10.7921 11.094C10.8981 10.8891 11.0507 10.7189 11.2346 10.6005C11.4185 10.4822 11.6272 10.4199 11.8396 10.4199H11.9885ZM11.9142 11.3172C11.8198 11.3171 11.7271 11.3447 11.6453 11.3972C11.5635 11.4497 11.4956 11.5252 11.4483 11.6162C11.4011 11.7071 11.3763 11.8103 11.3763 11.9153C11.3763 12.0203 11.4011 12.1234 11.4483 12.2143C11.4955 12.3053 11.5634 12.3809 11.6452 12.4334C11.7269 12.4859 11.8197 12.5136 11.9141 12.5136C12.0085 12.5136 12.1012 12.4859 12.183 12.4334C12.2648 12.3809 12.3327 12.3053 12.3799 12.2143C12.4271 12.1234 12.4519 12.0203 12.4519 11.9153C12.4519 11.8103 12.4271 11.7071 12.3799 11.6162C12.3327 11.5253 12.2648 11.4498 12.1831 11.3973C12.1013 11.3448 12.0086 11.3171 11.9142 11.3172V11.3172ZM7.55402 11.9153H8.52152Z" fill="#FFD94C"/>
</g>
<defs>
<clipPath id="clip0_247_39">
<rect width="24" height="24" fill="white"/>
</clipPath>
</defs>
</svg>
