<svg width="33" height="33" viewBox="0 0 33 33" fill="none" xmlns="http://www.w3.org/2000/svg">
<g clip-path="url(#clip0_62_218)">
<path d="M11.8968 28.8843C10.0754 29.1347 8.81756 28.8871 7.94615 28.3985C6.98292 27.8583 6.57027 27.0678 6.37931 26.5344C6.29997 26.3345 6.0726 25.886 5.77747 25.4372C5.63002 25.213 5.47232 24.999 5.31591 24.8224C5.15656 24.6424 5.01948 24.5253 4.9154 24.4663C4.74408 24.3741 4.55696 24.2503 4.39295 24.1121C4.23864 23.9821 4.05568 23.799 3.95616 23.5806C3.90387 23.4658 3.85804 23.3047 3.89015 23.1219C3.92462 22.9255 4.0369 22.7721 4.17872 22.668C4.42211 22.4893 4.76993 22.4404 5.12769 22.4351L11.8968 28.8843ZM11.8968 28.8843C11.8986 29.3647 11.9023 29.8192 11.906 30.21C11.9076 30.3792 11.9091 30.5359 11.9106 30.6774C11.9138 30.9958 11.9162 31.2371 11.9162 31.3706C11.9162 31.4774 11.8776 31.5599 11.8269 31.6048C11.7896 31.6378 11.6802 31.7091 11.4024 31.6674C5.06085 29.5361 0.5 23.5653 0.5 16.5C0.5 7.65989 7.65989 0.5 16.5 0.5C25.3401 0.5 32.4999 7.65981 32.5 16.4999L11.8968 28.8843ZM20.4885 24.1552C22.0796 23.8978 23.7011 23.3944 24.994 22.31C26.5568 20.9992 27.56 18.9091 27.56 15.6337C27.56 13.8063 26.9512 12.2978 25.9379 11.0908C26.1711 10.3563 26.4982 8.71681 25.668 6.64118L25.5814 6.4246L25.3597 6.35183L25.2038 6.82687C25.3597 6.35183 25.3592 6.35167 25.3588 6.35151L25.3577 6.35118L25.3556 6.35049L25.351 6.34903L25.3401 6.34575C25.3321 6.34342 25.3227 6.34082 25.3119 6.33805C25.2903 6.33249 25.2631 6.32625 25.2301 6.32009C25.1641 6.30774 25.0755 6.29577 24.9637 6.29013C24.7398 6.27883 24.4256 6.29309 24.016 6.37871C23.2305 6.54293 22.0984 6.96869 20.5774 7.97565C19.2774 7.63223 17.9082 7.46125 16.5413 7.46125C15.1738 7.46125 13.8042 7.63234 12.5038 7.97599C10.9831 6.97848 9.85192 6.55338 9.06809 6.38678C8.65949 6.29994 8.34625 6.28358 8.12327 6.29282C8.01194 6.29743 7.92374 6.30841 7.85807 6.3199C7.82526 6.32565 7.79815 6.33151 7.77668 6.33674C7.76595 6.33935 7.75663 6.34181 7.74872 6.34401L7.73791 6.34711L7.73329 6.3485L7.73118 6.34915L7.73018 6.34946C7.72969 6.34961 7.72921 6.34976 7.87875 6.82687L7.72921 6.34976L7.50268 6.42076L7.41451 6.64118C6.5842 8.71695 6.91141 10.3565 7.14467 11.0909C6.13084 12.3007 5.5225 13.8263 5.5225 15.6337C5.5225 18.8985 6.52026 20.988 8.07712 22.3014C9.36626 23.389 10.9847 23.8966 12.5762 24.1552C12.332 24.5567 12.1387 25.0497 12.0287 25.6344L20.4885 24.1552ZM20.4885 24.1552C20.8865 24.8083 21.1456 25.7007 21.1456 26.8331C21.1456 27.9381 21.1405 28.9344 21.1353 29.7239C21.1336 29.9874 21.1319 30.2274 21.1303 30.4404C21.1273 30.8674 21.125 31.1863 21.125 31.3706C21.125 31.4797 21.1652 31.5683 21.2173 31.6151C21.2523 31.6466 21.357 31.7184 21.632 31.6696C24.7947 30.5943 27.5427 28.5574 29.4914 25.8435C31.4468 23.1203 32.499 19.8525 32.5 16.5L20.4885 24.1552Z" fill="white" stroke="white"/>
</g>
<defs>
<clipPath id="clip0_62_218">
<rect width="33" height="33" fill="white"/>
</clipPath>
</defs>
</svg>
