<svg width="25" height="28" viewBox="0 0 25 28" fill="none" xmlns="http://www.w3.org/2000/svg">
<g clip-path="url(#clip0_247_55)">
<path d="M12.4848 27.9293L2.31074 25.686L0.043457 5.48877H24.9565L22.6869 25.6829L12.4848 27.9293V27.9293Z" fill="#264DE4"/>
<path d="M20.7438 24.397L22.6833 7.14015H12.5V26.2122L20.7438 24.397V24.397Z" fill="#2965F1"/>
<path d="M5.2411 14.631L5.52059 17.1082H12.5V14.631H5.2411ZM4.67938 9.61734L4.96288 12.0944H12.5V9.61734H4.67938V9.61734ZM12.5 21.0644L12.4863 21.0672L9.01288 20.3223L8.79081 18.3467H5.65995L6.09686 22.2362L12.4856 23.6447L12.5 23.6416V21.0644Z" fill="#EBEBEB"/>
<path d="M5.90662 0H9.68396V1.25465H7.4863V2.5093H9.68416V3.76387H5.90662V0ZM10.4395 0H14.217V1.09099H12.0192V1.30917H14.217V3.81847H10.4396V2.6728H12.6374V2.45461H10.4394V0H10.4395ZM14.9725 0H18.75V1.09099H16.5522V1.30917H18.75V3.81847H14.9725V2.6728H17.1703V2.45461H14.9726V0H14.9725Z" fill="black"/>
<path d="M19.7389 14.631L20.3019 9.61734H12.4892V12.0944H16.884L16.6002 14.631H12.4892V17.1082H16.3298L15.9677 20.3208L12.4891 21.0665V23.6436L18.883 22.2362L18.9299 21.8177L19.6629 15.2962L19.7389 14.631V14.631Z" fill="white"/>
</g>
<defs>
<clipPath id="clip0_247_55">
<rect width="25" height="28" fill="white"/>
</clipPath>
</defs>
</svg>
