<svg width="24" height="24" viewBox="0 0 24 24" fill="none" xmlns="http://www.w3.org/2000/svg">
<g clip-path="url(#clip0_247_48)">
<path d="M17.8118 22.5037C17.7225 22.551 17.73 22.566 17.8155 22.5225C17.8418 22.5117 17.866 22.4962 17.8868 22.4767C17.8868 22.461 17.8868 22.461 17.8118 22.5037V22.5037ZM17.9918 22.4062C17.949 22.4415 17.949 22.4415 18 22.4182C18.0188 22.4094 18.0361 22.3975 18.051 22.383C18.051 22.3627 18.039 22.3672 17.9918 22.4062V22.4062ZM18.1088 22.3357C18.066 22.371 18.066 22.371 18.117 22.3477C18.1359 22.3387 18.1532 22.3266 18.168 22.3117C18.168 22.293 18.156 22.2967 18.1088 22.3357ZM18.2272 22.266C18.1845 22.3012 18.1845 22.3012 18.234 22.2772C18.2618 22.2622 18.285 22.2465 18.285 22.242C18.285 22.2232 18.273 22.227 18.2272 22.266ZM18.387 22.1602C18.3053 22.215 18.2767 22.2502 18.3517 22.2112C18.402 22.1805 18.4875 22.113 18.4725 22.113C18.4402 22.125 18.4132 22.1452 18.3862 22.1602H18.387ZM11.2148 0.00824384C11.16 0.0119938 10.9957 0.0269938 10.8517 0.0389938C7.44075 0.347994 4.2495 2.18399 2.22675 5.01224C1.10892 6.56343 0.382319 8.36167 0.10875 10.254C0.012 10.914 0 11.109 0 12.0037C0 12.8977 0.012 13.0897 0.10875 13.7497C0.762 18.258 3.969 22.0425 8.316 23.445C9.09825 23.6947 9.918 23.8672 10.8517 23.973C11.2147 24.012 12.7845 24.012 13.1475 23.973C14.7615 23.793 16.1243 23.3947 17.4728 22.707C17.6798 22.602 17.7187 22.5742 17.691 22.551C17.0332 21.6814 16.3809 20.8077 15.7343 19.9297L13.8165 17.34L11.4142 13.7812C10.6152 12.5897 9.80791 11.4037 8.9925 10.2232C8.98425 10.2232 8.97375 11.805 8.96925 13.734C8.961 17.1127 8.961 17.25 8.91825 17.328C8.87726 17.4222 8.8038 17.4986 8.71125 17.5432C8.637 17.5785 8.57025 17.586 8.2155 17.586H7.80975L7.704 17.52C7.63777 17.4775 7.58395 17.4182 7.548 17.3482L7.497 17.2425L7.50075 12.5392L7.509 7.83599L7.58325 7.74224C7.63067 7.6846 7.68904 7.63693 7.755 7.60199C7.85325 7.55474 7.89225 7.54724 8.298 7.54724C8.77425 7.54724 8.853 7.56599 8.97825 7.70324C9.9514 9.15065 10.9162 10.6037 11.8725 12.0622C13.4317 14.4262 15.5603 17.652 16.6065 19.2345L18.5093 22.1137L18.603 22.0515C19.5174 21.4438 20.3461 20.7161 21.0668 19.8877C22.5784 18.1576 23.5593 16.0283 23.892 13.755C23.9888 13.095 24.0007 12.8992 24.0007 12.0052C24.0007 11.1105 23.9888 10.9192 23.892 10.2592C23.2388 5.75099 20.0318 1.96649 15.6848 0.563244C14.8723 0.305935 14.0361 0.130807 13.1887 0.0404938C12.9615 0.0172438 11.4105 -0.0105062 11.2155 0.00974385L11.2148 0.00824384ZM16.125 7.26599C16.1808 7.2934 16.2306 7.33166 16.2714 7.37853C16.3122 7.42541 16.3433 7.47996 16.3627 7.53899C16.383 7.60199 16.3867 8.90624 16.383 11.844L16.3748 16.062L15.633 14.922L14.8868 13.7812V10.719C14.8868 8.73374 14.895 7.62074 14.9055 7.56599C14.9422 7.44046 15.0264 7.33418 15.1403 7.26974C15.2333 7.22249 15.2693 7.21874 15.6405 7.21874C15.9878 7.21874 16.0463 7.22249 16.1243 7.26599H16.125Z" fill="#222222"/>
</g>
<defs>
<clipPath id="clip0_247_48">
<rect width="24" height="24" fill="white"/>
</clipPath>
</defs>
</svg>
