<svg width="25" height="23" viewBox="0 0 25 23" fill="none" xmlns="http://www.w3.org/2000/svg">
<path d="M19.7858 7.2779C19.5315 7.18571 19.2751 7.10018 19.0166 7.02137C19.0613 6.8376 19.1025 6.65603 19.1392 6.47763C19.7416 3.54808 19.3753 1.18249 18.0773 0.396054C16.8328 -0.357876 14.7847 0.406752 12.7093 2.25309C12.5047 2.43538 12.3046 2.623 12.1093 2.81575C11.9801 2.68591 11.8487 2.55856 11.715 2.43376C9.56515 0.431507 7.40288 -0.420451 6.09626 0.351464C4.84326 1.09166 4.45938 3.31079 4.96686 6.09414C5.01735 6.3698 5.07461 6.64409 5.13856 6.91673C4.83115 7.00504 4.53446 7.09923 4.25045 7.1997C1.70909 8.09882 0.080671 9.52295 0.0711026 11.011C0.0612202 12.5478 1.78958 14.1005 4.42438 15.0521C4.63799 15.129 4.85342 15.2003 5.07047 15.266C4.99796 15.5588 4.93336 15.8535 4.87675 16.15C4.35834 18.8785 4.73551 21.05 5.97554 21.8015C7.25631 22.5776 9.41931 21.8023 11.5327 19.9138C11.7041 19.7603 11.8717 19.6023 12.0355 19.4401C12.2444 19.6516 12.4589 19.8569 12.6789 20.0559C14.7026 21.8826 16.708 22.6279 17.9564 21.8904C19.2458 21.1286 19.6783 18.8012 19.1545 15.9628C19.1133 15.7405 19.0668 15.5192 19.0152 15.2991C19.1671 15.2536 19.3161 15.2067 19.4614 15.1578C22.2129 14.2336 24.0089 12.7223 24.0189 11.165C24.0285 9.67151 22.3663 8.21654 19.7858 7.2779V7.2779ZM19.1462 14.1503C19.0149 14.1943 18.8803 14.2367 18.7431 14.278C18.4464 13.2824 18.0442 12.2233 17.5507 11.1285C18.0352 10.066 18.4351 9.02553 18.736 8.04033C18.9806 8.11533 19.2178 8.19426 19.4464 8.27739C21.6575 9.08171 23.0017 10.2584 22.9959 11.1584C22.9898 12.117 21.5219 13.3521 19.1462 14.1503V14.1503ZM18.1497 16.1621C18.3813 17.4172 18.4081 18.5508 18.2437 19.4358C18.096 20.2311 17.8058 20.76 17.4497 20.9703C16.6921 21.4178 15.0819 20.8195 13.3513 19.2572C13.1467 19.0721 12.9471 18.8812 12.7528 18.6847C13.4326 17.9248 14.1126 17.0408 14.7772 16.0583C15.9356 15.9594 17.0305 15.7924 18.0239 15.5614C18.0704 15.7606 18.1123 15.9609 18.1497 16.1621V16.1621ZM8.17263 20.8325C7.43356 21.0973 6.84623 21.1013 6.49258 20.8871C5.7401 20.4311 5.43726 18.6874 5.88063 16.3541C5.93333 16.0784 5.99339 15.8042 6.06076 15.5319C7.04024 15.763 8.125 15.9315 9.28481 16.0364C9.94128 17.0062 10.6294 17.8981 11.3237 18.6797C11.1741 18.8276 11.0211 18.9717 10.8646 19.1119C9.93005 19.9469 8.99514 20.5376 8.17263 20.8325V20.8325ZM4.7618 14.0519C3.59672 13.631 2.6358 13.0877 1.97857 12.4973C1.38794 11.9668 1.09149 11.4418 1.09422 11.0175C1.10002 10.1145 2.40744 8.9711 4.58078 8.20224C4.84454 8.109 5.12052 8.02117 5.40684 7.93892C5.70007 8.95023 6.08637 10.0082 6.55388 11.0784C6.06637 12.1583 5.66078 13.228 5.35159 14.2474C5.15347 14.1872 4.95682 14.122 4.7618 14.0519V14.0519ZM5.9722 5.89707C5.53746 3.51244 5.8479 1.71772 6.603 1.27163C7.40722 0.796503 9.17439 1.49267 11.0306 3.22159C11.1517 3.33459 11.2707 3.44984 11.3877 3.5673C10.687 4.33653 9.99383 5.21294 9.33087 6.1685C8.20387 6.26937 7.12464 6.43603 6.13193 6.66224C6.07248 6.40865 6.01922 6.15354 5.9722 5.89717L5.9722 5.89707ZM16.2852 8.60494C16.0538 8.18466 15.8137 7.76959 15.565 7.36003C16.3284 7.46501 17.0596 7.60253 17.7461 7.7693C17.5353 8.45304 17.2734 9.16754 16.9659 9.89986C16.7474 9.46357 16.5204 9.03184 16.2852 8.60494V8.60494ZM12.1 4.32905C12.5684 4.86148 13.0372 5.45552 13.4979 6.09978C12.5553 6.0476 11.6108 6.04134 10.6675 6.081C11.1369 5.44863 11.6173 4.86146 12.1 4.32905ZM7.83301 8.55785C7.59534 8.97829 7.36718 9.40441 7.14871 9.83586C6.85556 9.10229 6.60527 8.3812 6.4016 7.68512C7.08588 7.53122 7.81534 7.40649 8.5752 7.31315C8.31843 7.72195 8.07097 8.13693 7.83301 8.55776L7.83301 8.55785ZM8.54825 14.8933C7.76445 14.7976 7.02566 14.6701 6.34358 14.5117C6.55954 13.8059 6.82479 13.0728 7.1339 12.3275C7.34766 12.762 7.57126 13.1913 7.80452 13.615C8.04438 14.0505 8.29292 14.4772 8.54825 14.8933ZM12.0408 17.9218C11.5594 17.377 11.0796 16.7745 10.6114 16.1269C11.0699 16.1485 11.5373 16.161 12.0124 16.164C12.5005 16.1672 12.9831 16.1589 13.4582 16.1401C12.9876 16.7933 12.5129 17.3905 12.0408 17.9218ZM16.9598 12.3525C17.275 13.1101 17.5401 13.8427 17.7499 14.5391C17.0545 14.6988 16.304 14.8261 15.5135 14.9191C15.7692 14.5052 16.0171 14.0861 16.2567 13.662C16.5004 13.231 16.7348 12.7943 16.9598 12.3525V12.3525ZM15.374 13.127C15.007 13.7773 14.6198 14.415 14.2128 15.0391C13.4826 15.088 12.7509 15.1099 12.0192 15.1048C11.2739 15.1 10.5492 15.0713 9.85143 15.0199C9.442 14.3919 9.05566 13.7481 8.69325 13.0899L8.69334 13.0899C8.33263 12.4351 7.99607 11.7664 7.68439 11.0852C8.004 10.4079 8.3481 9.74322 8.71596 9.09265L8.71587 9.09275C9.08359 8.44201 9.47503 7.80596 9.88937 7.18598C10.6019 7.13476 11.3324 7.11039 12.0705 7.11514L12.0706 7.11514C12.812 7.11991 13.5431 7.15396 14.2547 7.21472C14.6569 7.83903 15.0377 8.47785 15.3963 9.12999C15.757 9.7838 16.097 10.4496 16.4159 11.1263C16.0916 11.8058 15.7441 12.4732 15.374 13.127V13.127ZM17.5605 1.31051C18.3593 1.79459 18.6587 3.72789 18.1386 6.2573C18.1054 6.41867 18.0682 6.58302 18.0278 6.74968C17.0357 6.50576 15.958 6.32223 14.8291 6.20522C14.1774 5.23064 13.5012 4.34407 12.8216 3.57594C13.0022 3.39803 13.1869 3.2248 13.3758 3.05639C15.154 1.47454 16.8105 0.856098 17.5605 1.31051V1.31051ZM12.0593 8.87352C13.2403 8.88111 14.1914 9.87873 14.1835 11.1017C14.1756 12.3247 13.2118 13.31 12.0308 13.3024C10.8498 13.2948 9.89869 12.2972 9.90655 11.0742C9.91442 9.85123 10.8782 8.86592 12.0593 8.87352V8.87352Z" fill="#00D8FF"/>
</svg>
