<svg width="40" height="22" viewBox="0 0 40 22" fill="none" xmlns="http://www.w3.org/2000/svg">
<g clip-path="url(#clip0_251_38)">
<path d="M12.1978 14.5495C14.2006 14.5495 15.8242 12.9167 15.8242 10.9023C15.8242 8.88815 14.2006 7.25528 12.1977 7.25528C10.195 7.25528 8.57141 8.88799 8.57141 10.9024C8.57141 12.9167 10.195 14.5495 12.1978 14.5495ZM3.62641 21.8436C5.62922 21.8436 7.25281 20.2109 7.25281 18.1965C7.25281 16.1824 5.62922 14.5495 3.62625 14.5495C1.62375 14.5495 0 16.1823 0 18.1965C0 20.2108 1.62344 21.8438 3.62641 21.8438V21.8436ZM36.3736 21.8436C38.3764 21.8436 40 20.2109 40 18.1965C40 16.1824 38.3766 14.5495 36.3736 14.5495C34.3708 14.5495 32.7472 16.1823 32.7472 18.1965C32.7472 20.2108 34.3708 21.8438 36.3738 21.8438L36.3736 21.8436Z" fill="black"/>
<path d="M24.4633 11.0561C24.3473 9.83761 24.2883 8.82341 23.3602 8.11061C22.1848 7.20799 20.8533 7.79366 19.2133 7.19824C17.6016 6.80617 16.4062 5.36721 16.4062 3.652C16.4062 1.63507 18.0591 0 20.0978 0C21.608 0 22.9062 0.896814 23.4781 2.18161C24.3533 3.85361 23.7844 5.555 24.8841 6.41206C26.1861 7.42689 27.9416 6.68376 29.9003 7.64531C30.5255 7.93386 31.058 8.39242 31.4378 8.96924C31.8255 9.55829 32.032 10.2493 32.0312 10.9557C32.0312 12.6709 30.8359 14.11 29.2244 14.5021C27.5842 15.0975 26.2527 14.5118 25.0773 15.4145C23.7555 16.4296 24.4631 18.1278 23.3858 19.9216C22.7744 21.103 21.5316 21.9115 20.0978 21.9115C18.0591 21.9115 16.4062 20.2765 16.4062 18.2595C16.4062 16.7945 17.2784 15.5309 18.5372 14.9492C20.4959 13.9874 22.2513 14.7307 23.5534 13.7159C24.3045 13.1304 24.4633 12.2273 24.4633 11.0561V11.0561Z" fill="#D0021B"/>
</g>
<defs>
<clipPath id="clip0_251_38">
<rect width="40" height="22" fill="white"/>
</clipPath>
</defs>
</svg>
