<svg width="20" height="24" viewBox="0 0 20 24" fill="none" xmlns="http://www.w3.org/2000/svg">
<path d="M8.505 17.3475H3.536C3.46134 17.3475 3.38974 17.3771 3.33695 17.4299C3.28416 17.4827 3.2545 17.5543 3.2545 17.629C3.2545 17.7036 3.28416 17.7752 3.33695 17.828C3.38974 17.8808 3.46134 17.9105 3.536 17.9105H8.506C8.58066 17.9105 8.65226 17.8808 8.70505 17.828C8.75784 17.7752 8.7875 17.7036 8.7875 17.629C8.7875 17.5543 8.75784 17.4827 8.70505 17.4299C8.65226 17.3771 8.58066 17.3475 8.506 17.3475H8.505ZM15.825 17.3475H10.856C10.7813 17.3475 10.7097 17.3771 10.6569 17.4299C10.6042 17.4827 10.5745 17.5543 10.5745 17.629C10.5745 17.7036 10.6042 17.7752 10.6569 17.828C10.7097 17.8808 10.7813 17.9105 10.856 17.9105H15.825C15.8997 17.9105 15.9713 17.8808 16.024 17.828C16.0768 17.7752 16.1065 17.7036 16.1065 17.629C16.1065 17.5543 16.0768 17.4827 16.024 17.4299C15.9713 17.3771 15.8997 17.3475 15.825 17.3475ZM8.491 10.8725H3.537C3.46234 10.8725 3.39074 10.9021 3.33795 10.9549C3.28516 11.0077 3.2555 11.0793 3.2555 11.154C3.2555 11.2286 3.28516 11.3002 3.33795 11.353C3.39074 11.4058 3.46234 11.4355 3.537 11.4355H8.491C8.56566 11.4355 8.63726 11.4058 8.69005 11.353C8.74284 11.3002 8.7725 11.2286 8.7725 11.154C8.7725 11.0793 8.74284 11.0077 8.69005 10.9549C8.63726 10.9021 8.56566 10.8725 8.491 10.8725ZM15.811 10.8725H10.856C10.7813 10.8725 10.7097 10.9021 10.6569 10.9549C10.6042 11.0077 10.5745 11.0793 10.5745 11.154C10.5745 11.2286 10.6042 11.3002 10.6569 11.353C10.7097 11.4058 10.7813 11.4355 10.856 11.4355H15.811C15.8857 11.4355 15.9573 11.4058 16.01 11.353C16.0628 11.3002 16.0925 11.2286 16.0925 11.154C16.0925 11.0793 16.0628 11.0077 16.01 10.9549C15.9573 10.9021 15.8857 10.8725 15.811 10.8725ZM16.363 1.67248H12.022C11.8669 1.18694 11.5615 0.763262 11.1499 0.462637C10.7382 0.162012 10.2417 0 9.732 0C9.22229 0 8.72576 0.162012 8.31414 0.462637C7.90252 0.763262 7.5971 1.18694 7.442 1.67248H3.096C2.27497 1.67275 1.48765 1.99902 0.90709 2.57957C0.326535 3.16013 0.000265062 3.94745 0 4.76848V20.9025C0 21.7239 0.32629 22.5116 0.90709 23.0924C1.48789 23.6732 2.27562 23.9995 3.097 23.9995H16.363C17.1842 23.9992 17.9717 23.6728 18.5523 23.092C19.1328 22.5113 19.459 21.7237 19.459 20.9025V4.76948C19.4587 3.94845 19.1325 3.16113 18.5519 2.58057C17.9714 2.00002 17.184 1.67375 16.363 1.67348V1.67248ZM7.658 2.23548C7.72349 2.23689 7.78741 2.21538 7.83872 2.17466C7.89002 2.13394 7.92549 2.07658 7.939 2.01248C8.02827 1.60173 8.25542 1.23389 8.5827 0.970111C8.90997 0.706327 9.31766 0.562482 9.738 0.562482C10.1583 0.562482 10.566 0.706327 10.8933 0.970111C11.2206 1.23389 11.4477 1.60173 11.537 2.01248C11.5505 2.07675 11.5862 2.13425 11.6377 2.17498C11.6892 2.21572 11.7533 2.23713 11.819 2.23548H13.333V4.07948C13.3327 4.30325 13.2437 4.51777 13.0855 4.67599C12.9273 4.83421 12.7128 4.92322 12.489 4.92348H6.985C6.76124 4.92322 6.54672 4.83421 6.38849 4.67599C6.23027 4.51777 6.14126 4.30325 6.141 4.07948V2.23548H7.658ZM18.896 20.9025C18.896 22.3025 17.762 23.4365 16.363 23.4365H3.097C2.42511 23.4362 1.78084 23.1691 1.30584 22.6939C0.830837 22.2187 0.564 21.5744 0.564 20.9025V4.76948C0.564 4.09769 0.830869 3.45341 1.3059 2.97838C1.78093 2.50335 2.42521 2.23648 3.097 2.23648H5.577V4.07948C5.577 4.85648 6.207 5.48648 6.985 5.48648H12.475C13.252 5.48648 13.882 4.85648 13.882 4.07948V2.23548H16.362C17.762 2.23548 18.896 3.36948 18.896 4.76848V20.9025Z" fill="#222222"/>
</svg>
