<svg width="29" height="30" viewBox="0 0 29 30" fill="none" xmlns="http://www.w3.org/2000/svg">
<path d="M28.9 14.8701C28.9 12.7201 26.5025 10.6824 22.8262 9.41946C23.6751 5.21285 23.2982 1.86486 21.6365 0.792591C21.2338 0.539357 20.7781 0.41189 20.3167 0.423448V1.89732C20.5876 1.89732 20.8056 1.95816 20.9886 2.0704C21.7894 2.58693 22.1374 4.55028 21.8665 7.07749C21.8014 7.69949 21.6955 8.35394 21.5654 9.02192C20.3343 8.68879 19.0848 8.44802 17.8253 8.30121C17.0749 7.13873 16.2563 6.0338 15.3748 4.99379C17.2954 2.98987 19.0981 1.89191 20.3239 1.89191V0.416687C18.7031 0.416687 16.5826 1.71342 14.438 3.96209C12.2945 1.7283 10.1728 0.44373 8.5532 0.44373V1.9176C9.77302 1.9176 11.5817 3.01016 13.5023 5.00055C12.6775 5.97412 11.8526 7.07749 11.0687 8.30121C9.80653 8.4464 8.55482 8.68947 7.32254 9.02868C7.1923 8.39558 7.08983 7.75568 7.01548 7.1113C6.73852 4.58273 7.0805 2.61938 7.87645 2.09744C8.05226 1.97845 8.28226 1.92436 8.5532 1.92436V0.450491C8.05949 0.450491 7.61033 0.569483 7.22259 0.819635C5.56686 1.89191 5.19598 5.23178 6.04973 9.42622C2.38545 10.6973 0 12.7269 0 14.8701C0 17.02 2.3975 19.0577 6.07382 20.3193C5.22488 24.5273 5.60178 27.8753 7.26353 28.9462C7.64646 29.1977 8.09441 29.3167 8.58812 29.3167C10.2089 29.3167 12.3295 28.02 14.4741 25.7713C16.6175 28.0064 18.738 29.2896 20.3588 29.2896C20.8238 29.3007 21.283 29.1728 21.6894 28.9191C23.3452 27.8482 23.7161 24.5084 22.8623 20.3139C26.5145 19.051 28.9 17.0133 28.9 14.8701ZM21.2295 10.4579C21.0006 11.3421 20.7354 12.2138 20.4347 13.0703C19.9424 11.995 19.4018 10.9484 18.8151 9.93463C19.652 10.0739 20.4588 10.2456 21.2307 10.4579H21.2295ZM18.5321 17.5027C18.0911 18.3674 17.6174 19.2106 17.1124 20.03C15.345 20.2049 13.5674 20.2071 11.7996 20.0367C10.7857 18.4103 9.89889 16.6884 9.14926 14.8904C9.89775 13.088 10.7807 11.3601 11.7888 9.72505C13.5558 9.54976 15.333 9.54705 17.1004 9.71694C17.5893 10.5039 18.0673 11.345 18.5261 12.232C18.9741 13.0974 19.3811 13.9763 19.7519 14.8633C19.3769 15.7611 18.97 16.6416 18.5321 17.5027ZM20.4347 16.6428C20.7526 17.5284 21.0247 18.4155 21.2475 19.2754C20.4769 19.4877 19.6628 19.6662 18.8211 19.8041C19.4054 18.7811 19.944 17.726 20.4347 16.6428ZM14.462 23.7011C13.9141 23.0656 13.3662 22.3584 12.8244 21.5836C13.3542 21.6107 13.8961 21.6309 14.444 21.6309C14.9979 21.6309 15.5458 21.6174 16.0816 21.5836C15.5518 22.3584 15.0039 23.0656 14.462 23.7011ZM10.0789 19.8041C9.26696 19.672 8.46091 19.4979 7.66332 19.2822C7.88127 18.429 8.15221 17.5487 8.45807 16.6698C8.7001 17.1972 8.95418 17.7272 9.23114 18.2573C9.5081 18.786 9.78988 19.3025 10.0789 19.8041ZM14.4319 6.03902C14.9798 6.67455 15.5277 7.38173 16.0696 8.15653C15.5398 8.12948 14.9979 8.1092 14.45 8.1092C13.8961 8.1092 13.3482 8.12272 12.8123 8.15653C13.3422 7.38173 13.8901 6.67455 14.4319 6.03902ZM10.0729 9.93599C9.48868 10.9568 8.95015 12.0096 8.45927 13.0906C8.15006 12.2285 7.87879 11.3499 7.64646 10.4579C8.41712 10.2524 9.23114 10.0739 10.0729 9.93599ZM4.74201 18.2167C2.65639 17.2188 1.30772 15.9085 1.30772 14.8701C1.30772 13.8316 2.65639 12.5146 4.74201 11.5234C5.24776 11.2787 5.80168 11.0596 6.37365 10.8555C6.70962 12.1508 7.15155 13.5003 7.69824 14.8836C7.18209 16.1846 6.74557 17.5237 6.39172 18.8914C5.83232 18.6969 5.28176 18.4718 4.74201 18.2167ZM7.91138 27.6684C7.1106 27.1546 6.7626 25.1885 7.03354 22.6626C7.09856 22.0406 7.20453 21.3848 7.33458 20.7169C8.48817 21.0346 9.74893 21.2794 11.0747 21.4389C11.8251 22.6014 12.6438 23.7063 13.5252 24.7463C11.6046 26.7503 9.80192 27.8482 8.57608 27.8482C8.3448 27.8511 8.11649 27.7898 7.91138 27.6697V27.6684ZM21.8845 22.6288C22.1615 25.156 21.8195 27.1208 21.0235 27.6427C20.8477 27.7617 20.6177 27.8144 20.3468 27.8144C19.127 27.8144 17.3183 26.7232 15.3977 24.7315C16.2754 23.6958 17.0886 22.5934 17.8313 21.4322C19.0935 21.287 20.3452 21.0439 21.5775 20.7047C21.7135 21.3727 21.8183 22.0136 21.8845 22.6288ZM24.152 18.2167C23.6462 18.4614 23.0923 18.6805 22.5203 18.8847C22.1602 17.5099 21.7177 16.1642 21.1957 14.8565C21.7376 13.4814 22.1723 12.1387 22.5023 10.8487C23.0634 11.0438 23.616 11.269 24.158 11.5234C26.2436 12.5213 27.5923 13.8316 27.5923 14.8701C27.5863 15.9085 26.2376 17.2256 24.152 18.2167Z" fill="black"/>
<path d="M14.444 17.8935C15.1581 17.8935 15.8429 17.575 16.3479 17.008C16.8528 16.441 17.1365 15.6719 17.1365 14.8701C17.1365 14.0682 16.8528 13.2992 16.3479 12.7322C15.8429 12.1652 15.1581 11.8466 14.444 11.8466C13.7299 11.8466 13.045 12.1652 12.5401 12.7322C12.0351 13.2992 11.7515 14.0682 11.7515 14.8701C11.7515 15.6719 12.0351 16.441 12.5401 17.008C13.045 17.575 13.7299 17.8935 14.444 17.8935Z" fill="black"/>
</svg>
