<svg width="30" height="24" viewBox="0 0 30 24" fill="none" xmlns="http://www.w3.org/2000/svg">
<path d="M15 0C11 0 8.49996 2.66672 7.5 8C9 5.33328 10.75 4.33328 12.75 5C13.8911 5.38031 14.7067 6.48422 15.6095 7.70594C17.0802 9.69641 18.7822 12 22.5 12C26.5 12 29 9.33328 30 4C28.5 6.66672 26.75 7.66672 24.75 7C23.6089 6.61969 22.7933 5.51578 21.8905 4.29406C20.4198 2.30359 18.7178 0 15 0ZM7.5 12C3.50004 12 0.999961 14.6667 0 20C1.5 17.3333 3.24996 16.3333 5.25 17C6.39105 17.3803 7.20668 18.4842 8.10949 19.7059C9.58019 21.6964 11.2822 24 15 24C19 24 21.5 21.3333 22.5 16C21 18.6667 19.25 19.6667 17.25 19C16.1089 18.6197 15.2933 17.5158 14.3905 16.2941C12.9198 14.3036 11.2178 12 7.5 12Z" fill="url(#paint0_linear_247_36)"/>
<defs>
<linearGradient id="paint0_linear_247_36" x1="-0.8334" y1="7.68" x2="28.2513" y2="20.2573" gradientUnits="userSpaceOnUse">
<stop stop-color="#2298BD"/>
<stop offset="1" stop-color="#0ED7B5"/>
</linearGradient>
</defs>
</svg>
