<svg width="25" height="27" viewBox="0 0 25 27" fill="none" xmlns="http://www.w3.org/2000/svg">
<g clip-path="url(#clip0_247_61)">
<path d="M13.0435 0.00445557L26.087 6.74561V20.2323L13.0435 26.9735L0 20.2323V6.74561L13.0435 0.00445557Z" fill="white"/>
<path d="M23.7588 19.7647L13.4766 25.0846V20.9474L19.8851 17.723L23.7588 19.7647ZM24.4626 19.1845V8.0678L20.7022 10.0509V17.2012L24.4626 19.1845V19.1845ZM2.28868 19.7646L12.5709 25.0802V20.9429L6.16239 17.723L2.28868 19.7647V19.7646ZM1.58484 19.1845V8.0678L5.34533 10.0509V17.2012L1.58484 19.1845V19.1845ZM2.02302 7.34829L12.5709 1.89774V5.90025L5.81296 9.29546L5.75875 9.32246L2.02302 7.3482V7.34829ZM24.0196 7.34829L13.4766 1.89764V5.90016L20.2297 9.29983L20.2838 9.32683L24.0196 7.34811V7.34829Z" fill="#8ED6FB"/>
<path d="M12.5709 20.003L6.25098 16.8235V10.5321L12.5709 13.8645V20.003V20.003ZM13.4767 20.003L19.7966 16.8281V10.5321L13.4767 13.8645V20.003V20.003ZM6.67428 9.80359L13.0238 6.61517L19.3682 9.80359L13.0238 13.1495L6.67428 9.80359V9.80359Z" fill="#1C78C0"/>
</g>
<defs>
<clipPath id="clip0_247_61">
<rect width="25" height="27" fill="white"/>
</clipPath>
</defs>
</svg>
